PERFORMER "Dubfire"
TITLE "Essential Mix (2007-09-02) [TMB]"
FILE "2007-09-02 - EM - Dubfire.mp3" MP3
  TRACK 01 AUDIO
    PERFORMER "Agnes & Ripperton"
    TITLE "Tchang Beers"
    INDEX 01 00:00:00
  TRACK 02 AUDIO
    PERFORMER "Dapayk Solo vs. Troy Pierce"
    TITLE "Hagen (Pan-Pot Remix) vs. 25 Bitches (Gaiser's Too Many Bitches Makeover)"
    INDEX 01 11:37:62
  TRACK 03 AUDIO
    PERFORMER "Dubfire"
    TITLE "RibCage"
    INDEX 01 14:40:08
  TRACK 04 AUDIO
    PERFORMER "Robbie Rivera feat. Justine Suissa"
    TITLE "Float Away (Dubfire's Casaplex Remix)"
    INDEX 01 25:28:60
  TRACK 05 AUDIO
    PERFORMER "Dusty Kid"
    TITLE "Psika"
    INDEX 01 33:30:06
  TRACK 06 AUDIO
    PERFORMER "Dubfire"
    TITLE "Roadkill"
    INDEX 01 39:03:20
  TRACK 07 AUDIO
    PERFORMER "Davide Squillace"
    TITLE "Miss Giggler (Darko Esser Remix)"
    INDEX 01 45:21:48
  TRACK 08 AUDIO
    PERFORMER "Gregor Tresher"
    TITLE "Anti"
    INDEX 01 50:08:74
  TRACK 09 AUDIO
    PERFORMER "Alex Bau"
    TITLE "Summer In Moncton"
    INDEX 01 57:57:12
  TRACK 10 AUDIO
    PERFORMER "DK7"
    TITLE "Protection (Phil Kieran Remix) (Unreleased Mix)"
    INDEX 01 62:28:67
  TRACK 11 AUDIO
    PERFORMER "Smith & Selway"
    TITLE "Transit Time (Dubfire Remix)"
    INDEX 01 69:01:08
  TRACK 12 AUDIO
    PERFORMER "Dark Comedy"
    TITLE "War Of The Worlds"
    INDEX 01 80:19:17
  TRACK 13 AUDIO
    PERFORMER "Deetron feat. DJ Bone"
    TITLE "Life Soundtrack (Radio Slave Remix)"
    INDEX 01 84:54:01
  TRACK 14 AUDIO
    PERFORMER "Marcel Dettman"
    TITLE "Quicksand"
    INDEX 01 93:38:09
  TRACK 15 AUDIO
    PERFORMER "M.A.N.D.Y. & Booka Shade feat. Laurie Anderson"
    TITLE "Oh Superman"
    INDEX 01 96:18:24
  TRACK 16 AUDIO
    PERFORMER "Meat Katie & D. Ramirez feat. Odissi"
    TITLE "Stop The Revolution (Dubfire Arrowhead Dub)"
    INDEX 01 98:03:39
  TRACK 17 AUDIO
    PERFORMER "Steve Lawler"
    TITLE "Violet"
    INDEX 01 104:35:71
  TRACK 18 AUDIO
    PERFORMER "Underworld"
    TITLE "Biro For Legge (Mark Knight Remix)"
    INDEX 01 111:06:13